<svg width="688" height="114" viewBox="0 0 688 114" fill="none" xmlns="http://www.w3.org/2000/svg">
<mask id="mask0_113_529" style="mask-type:luminance" maskUnits="userSpaceOnUse" x="0" y="6" width="64" height="59">
<path d="M63.4762 6.4303H0V64.7853H63.4762V6.4303Z" fill="white"/>
</mask>
<g mask="url(#mask0_113_529)">
<path d="M47.745 21.886V12.5621C26.9613 14.7208 10.3344 31.3248 8.17566 52.1314H17.4996C19.5205 36.4001 32.0596 23.884 47.7679 21.863L47.745 21.886Z" fill="#F4F4F4" stroke="#F4F4F4" stroke-miterlimit="10"/>
</g>
<mask id="mask1_113_529" style="mask-type:luminance" maskUnits="userSpaceOnUse" x="52" y="9" width="49" height="47">
<path d="M100.473 9.30099H52.384V55.4613H100.473V9.30099Z" fill="white"/>
</mask>
<g mask="url(#mask1_113_529)">
<path d="M87.2454 52.1314H96.5693C94.4106 31.3248 77.7837 14.7209 56.9771 12.5392V21.8631C72.7083 23.884 85.2244 36.4002 87.2454 52.1314Z" fill="#F4F4F4" stroke="#F4F4F4" stroke-miterlimit="10"/>
</g>
<mask id="mask2_113_529" style="mask-type:luminance" maskUnits="userSpaceOnUse" x="0" y="53" width="59" height="55">
<path d="M58.355 53.4175H0V107.088H58.355V53.4175Z" fill="white"/>
</mask>
<g mask="url(#mask2_113_529)">
<path d="M17.4996 61.3635H8.17566C10.3344 82.1701 26.9613 98.774 47.7679 100.956V91.6318C32.0826 89.6109 19.5205 77.0718 17.4996 61.3635Z" fill="#F4F4F4" stroke="#F4F4F4" stroke-miterlimit="10"/>
</g>
<mask id="mask3_113_529" style="mask-type:luminance" maskUnits="userSpaceOnUse" x="51" y="53" width="54" height="51">
<path d="M104.676 53.4175H51.0061V103.298H104.676V53.4175Z" fill="white"/>
</mask>
<g mask="url(#mask3_113_529)">
<path d="M56.9771 91.6318V100.956C77.7837 98.797 94.3876 82.1701 96.5693 61.3635H87.2454C85.2244 77.0488 72.7313 89.6109 56.9771 91.6318Z" fill="#F4F4F4" stroke="#F4F4F4" stroke-miterlimit="10"/>
</g>
<path d="M78.8399 56.7474C78.8399 42.1644 66.9668 30.2913 52.3838 30.2913C37.8008 30.2913 25.9277 42.1644 25.9277 56.7474C25.9277 71.3304 37.7779 83.2035 52.3838 83.2035C66.9898 83.2035 78.8399 71.3304 78.8399 56.7474ZM52.3838 73.9485C42.8991 73.9485 35.1598 66.2321 35.1598 56.7474C35.1598 47.2627 42.8991 39.5234 52.3838 39.5234C61.8685 39.5234 69.6078 47.2397 69.6078 56.7474C69.6078 66.2551 61.8915 73.9485 52.3838 73.9485Z" fill="#F4F4F4"/>
<path d="M61.0419 56.7474C61.0419 57.8957 60.8123 58.998 60.3759 60.0544C59.9396 61.1108 59.3195 62.0524 58.5157 62.8562C57.7119 63.66 56.7704 64.303 55.714 64.7394C54.6575 65.1757 53.5552 65.3824 52.4069 65.3824C51.2587 65.3824 50.1563 65.1757 49.0999 64.7394C48.0435 64.303 47.1019 63.683 46.2982 62.8562C45.4944 62.0295 44.8743 61.1108 44.438 60.0544C44.0016 58.998 43.772 57.8957 43.772 56.7474C43.772 55.5992 44.0016 54.4968 44.438 53.4404C44.8743 52.384 45.4944 51.4424 46.2982 50.6386C47.1019 49.8349 48.0435 49.1918 49.0999 48.7555C50.1563 48.3191 51.2587 48.1125 52.4069 48.1125C53.5552 48.1125 54.6575 48.3191 55.714 48.7555C56.7704 49.1918 57.7119 49.8119 58.5157 50.6386C59.3195 51.4654 59.9625 52.384 60.3759 53.4404C60.8123 54.4968 61.0419 55.5992 61.0419 56.7474Z" fill="#E02F2F"/>
<path d="M139.34 90.5309C133.622 90.5309 128.501 89.13 123.977 86.3283C119.452 83.5035 115.893 79.5764 113.298 74.57C110.748 69.5636 109.462 63.7992 109.462 57.2541C109.462 50.709 110.726 44.9447 113.298 39.9382C115.87 34.9088 119.406 30.9818 123.862 28.18C128.363 25.3553 133.484 23.9314 139.225 23.9314C144.255 23.9314 148.733 25.0797 152.614 27.3762C156.495 29.6727 159.665 32.9797 162.076 37.2743H162.214C162.214 24.873 162.237 12.4717 162.26 0.0704041H175.97L175.672 90.0027H162.237C162.306 85.7082 162.375 81.3907 162.443 77.0962H162.306C159.94 81.3677 156.771 84.6977 152.844 87.0402C148.894 89.4056 144.37 90.5768 139.294 90.5768L139.34 90.5309ZM143.038 78.52C146.873 78.52 150.249 77.5785 153.188 75.6953C156.151 73.8121 158.47 71.263 160.17 68.0478C161.892 64.8327 162.765 61.2271 162.765 57.2312C162.765 53.2352 161.892 49.5148 160.17 46.3226C158.47 43.1304 156.151 40.6042 153.188 38.7211C150.249 36.8379 146.873 35.8963 143.038 35.8963C139.203 35.8963 135.896 36.8379 132.887 38.7211C129.925 40.6042 127.582 43.1534 125.86 46.3226C124.16 49.5148 123.333 53.1433 123.333 57.2312C123.333 61.319 124.16 64.9705 125.86 68.1856C127.582 71.4237 129.925 73.9499 132.887 75.7872C135.873 77.6014 139.271 78.52 143.038 78.52Z" fill="#F4F4F4"/>
<path d="M587.096 23.5395C592.814 23.5395 597.935 24.9403 602.46 27.7421C606.984 30.5669 610.543 34.4939 613.138 39.5004C615.688 44.5068 616.974 50.2711 616.974 56.8163C616.974 63.3614 615.711 69.1257 613.138 74.1321C610.566 79.1615 607.03 83.0886 602.574 85.8904C598.073 88.7151 592.952 90.139 587.211 90.139C582.181 90.139 577.703 88.9907 573.822 86.6942C569.941 84.3976 566.771 81.0906 564.36 76.7961H564.222C564.222 89.1974 564.199 101.599 564.176 114H550.466L550.765 24.0677H564.199C564.13 28.3622 564.062 32.6797 563.993 36.9742H564.13C566.496 32.7026 569.665 29.3727 573.592 27.0302C577.542 24.6648 582.066 23.4935 587.142 23.4935L587.096 23.5395ZM583.421 35.5503C579.586 35.5503 576.21 36.4919 573.271 38.3751C570.308 40.2582 567.989 42.8074 566.289 46.0225C564.567 49.2377 563.694 52.8432 563.694 56.8392C563.694 60.8352 564.567 64.5556 566.289 67.7478C567.989 70.9399 570.308 73.4661 573.271 75.3493C576.21 77.2324 579.586 78.174 583.421 78.174C587.257 78.174 590.564 77.2324 593.572 75.3493C596.535 73.4661 598.877 70.917 600.599 67.7478C602.299 64.5556 603.126 60.927 603.126 56.8392C603.126 52.7514 602.299 49.0999 600.599 45.8847C598.877 42.6466 596.535 40.1204 593.572 38.2832C590.587 36.469 587.188 35.5503 583.421 35.5503Z" fill="#F4F4F4"/>
<path d="M218.479 90.7591C211.52 90.7591 205.343 89.2893 199.923 86.3957C194.503 83.502 190.255 79.4831 187.2 74.3389C184.146 69.2176 182.607 63.3385 182.607 56.7244C182.607 50.1104 183.985 44.438 186.764 39.4545C189.543 34.4481 193.378 30.544 198.292 27.7422C203.23 24.9404 208.879 23.5395 215.287 23.5395C221.694 23.5395 227.068 24.9174 231.753 27.6962C236.461 30.4751 240.135 34.2873 242.707 39.133C245.325 43.9787 246.634 49.6052 246.634 55.9666C246.634 56.7933 246.589 57.712 246.497 58.6995C246.428 59.664 246.313 60.5137 246.152 61.2257H196.914C197.58 66.7833 199.9 71.2845 203.896 74.7293C207.869 78.1511 212.852 79.8506 218.823 79.8506C223.256 79.8506 227.275 78.886 230.88 76.934C234.509 74.9589 237.242 72.5016 239.056 69.5621L248.242 75.2116C246.037 79.7817 242.202 83.502 236.759 86.4186C231.34 89.3123 225.231 90.7821 218.479 90.7821V90.7591ZM196.914 51.8099H232.419C231.937 46.2522 230.168 41.9807 227.114 38.9952C224.06 35.9638 220.109 34.4481 215.287 34.4481C210.464 34.4481 206.238 36.0556 202.885 39.2708C199.555 42.5089 197.58 46.6656 196.914 51.8099Z" fill="#F4F4F4"/>
<path d="M274.078 90.5295C269.577 90.5295 265.581 89.7716 262.067 88.233C258.553 86.6713 255.821 84.5355 253.846 81.7797C251.893 79.0468 250.929 75.8317 250.929 72.1572C250.929 67.0359 253.134 62.6266 257.589 58.9521C262.044 55.2547 269.14 52.8434 278.878 51.7181L292.703 50.0875C294.173 49.9268 295.344 49.4445 296.24 48.6407C297.135 47.8139 297.572 46.7575 297.572 45.4255C297.572 42.0726 296.194 39.4316 293.461 37.4795C290.751 35.5045 287.191 34.517 282.782 34.517C279.498 34.517 276.581 35.16 274.078 36.4231C271.552 37.7092 269.554 39.3397 268.038 41.3607C266.568 43.3357 265.765 45.4715 265.604 47.768L252.491 44.5529C252.904 40.7176 254.42 37.2269 257.038 34.0347C259.656 30.8425 263.169 28.2934 267.556 26.3873C271.942 24.4811 276.972 23.5166 282.621 23.5166C288.271 23.5166 293.3 24.5041 297.549 26.4791C301.82 28.4312 305.15 31.21 307.538 34.8156C309.95 38.3981 311.167 42.6467 311.167 47.5384V75.5791C311.167 76.8881 311.42 77.9215 311.971 78.6794C312.545 79.4372 313.372 79.8276 314.451 79.8276C316.128 79.8276 317.758 78.7253 319.343 76.5206L324.119 84.3748C322.558 86.2579 320.445 87.7507 317.804 88.8301C315.14 89.9324 312.522 90.5065 309.904 90.5065C306.551 90.5065 303.749 89.519 301.476 87.544C299.248 85.523 298.008 83.1347 297.801 80.3558L297.503 77.7608H297.411C295.367 81.596 292.312 84.6733 288.225 86.9928C284.137 89.3123 279.406 90.4836 274.009 90.4836L274.078 90.5295ZM278.235 79.8506C283.792 79.8506 288.339 78.2201 291.922 74.959C295.528 71.6979 297.319 67.4723 297.319 62.2362V58.7914L281.519 60.6056C275.134 61.3405 270.725 62.6955 268.268 64.6246C265.833 66.5307 264.639 68.6894 264.639 71.0319C264.639 73.7418 265.902 75.9006 268.474 77.4852C271.07 79.0468 274.308 79.8276 278.235 79.8276V79.8506Z" fill="#F4F4F4"/>
<path d="M327.449 90.5294V0H341.274V90.5294H327.449Z" fill="#F4F4F4"/>
<path d="M376.963 90.6672C371.566 90.6672 366.651 89.8404 362.219 88.1869C357.81 86.5105 354.25 84.0532 351.494 80.815C348.784 77.554 347.268 73.7188 346.947 69.2405L359.532 67.3803C359.876 71.2385 361.714 74.3618 365.044 76.7043C368.397 79.0697 372.53 80.2409 377.445 80.2409C381.671 80.2409 385.253 79.4142 388.17 77.7147C391.063 75.9923 392.533 73.7877 392.533 71.0548C392.533 68.919 391.408 67.1736 389.134 65.7957C386.907 64.3948 383.37 63.2466 378.57 62.3509L368.994 60.6285C362.38 59.4113 357.58 57.4134 354.548 54.6575C351.54 51.8787 350.047 48.1354 350.047 43.3586C350.116 39.4774 351.173 36.0556 353.262 33.116C355.375 30.1535 358.292 27.857 362.012 26.2264C365.779 24.5959 370.073 23.7921 374.873 23.7921C381.831 23.7921 387.665 25.4456 392.441 28.7296C397.218 31.9907 400.112 36.2623 401.099 41.5443L388.859 43.8868C388.537 40.8553 387.044 38.398 384.403 36.5149C381.739 34.6317 378.478 33.6902 374.551 33.6902C371.107 33.6902 368.236 34.5628 365.939 36.2852C363.666 38.0076 362.494 40.0056 362.403 42.2562C362.403 44.2312 363.321 45.8159 365.136 46.9871C366.973 48.1813 369.912 49.2147 373.931 50.0874L383.6 51.8098C391.132 53.2796 396.598 55.4383 400.02 58.309C403.465 61.1567 405.187 65.0379 405.187 69.9295C405.187 74.0173 403.97 77.6229 401.559 80.7462C399.17 83.8465 395.84 86.2808 391.569 88.0262C387.32 89.7715 382.474 90.6672 377.032 90.6672H376.963Z" fill="#F4F4F4"/>
<path d="M441.748 90.7591C435.203 90.7591 429.415 89.3353 424.386 86.5106C419.38 83.6399 415.453 79.6898 412.674 74.6375C409.872 69.5621 408.471 63.7749 408.471 57.2297C408.471 50.6846 409.803 44.7596 412.49 39.7072C415.2 34.6318 418.92 30.6818 423.697 27.8341C428.474 24.9634 434.009 23.5166 440.301 23.5166C445.285 23.5166 449.809 24.4582 453.897 26.3413C457.984 28.2245 461.406 30.8425 464.185 34.1955C466.964 37.5255 468.847 41.4066 469.834 45.816L456.974 48.9852C456.009 44.6677 454.011 41.3377 450.934 38.9264C447.88 36.515 444.412 35.2978 440.554 35.2978C437.04 35.2978 433.917 36.2394 431.184 38.0766C428.474 39.8909 426.315 42.463 424.731 45.7241C423.123 48.9852 422.342 52.7974 422.342 57.2068C422.342 61.6161 423.169 65.3365 424.868 68.6435C426.591 71.9735 428.933 74.5456 431.896 76.4058C434.881 78.2201 438.28 79.1387 442.046 79.1387C446.846 79.1387 451.049 77.6459 454.585 74.6375C458.145 71.606 460.258 67.679 460.901 62.8562L474.014 64.9231C473.371 69.9985 471.557 74.4767 468.548 78.3579C465.586 82.216 461.774 85.2475 457.158 87.4521C452.565 89.6568 447.443 90.7591 441.794 90.7591H441.748Z" fill="#F4F4F4"/>
<path d="M511.057 90.7591C504.26 90.7591 498.312 89.3812 493.213 86.6024C488.115 83.8236 484.142 79.9195 481.34 74.89C478.538 69.8147 477.138 63.9356 477.138 57.2297C477.138 50.5238 478.538 44.5299 481.34 39.4775C484.142 34.4021 488.092 30.4751 493.213 27.6962C498.312 24.9174 504.26 23.5395 511.057 23.5395C517.855 23.5395 523.849 24.9174 528.901 27.6962C533.977 30.4751 537.904 34.4021 540.729 39.4775C543.553 44.5299 544.977 50.4319 544.977 57.2297C544.977 64.0274 543.553 69.8147 540.729 74.89C537.927 79.9424 533.977 83.8465 528.901 86.6024C523.849 89.3812 517.901 90.7591 511.057 90.7591ZM511.057 79.0008C517.189 79.0008 522.081 77.0258 525.755 73.0758C529.407 69.1257 531.267 63.8437 531.267 57.2297C531.267 50.6157 529.43 45.3336 525.755 41.4295C522.081 37.5025 517.189 35.5504 511.057 35.5504C504.926 35.5504 499.919 37.5025 496.268 41.4295C492.639 45.3336 490.802 50.5927 490.802 57.2297C490.802 63.8667 492.616 69.1257 496.268 73.0758C499.896 77.0258 504.834 79.0008 511.057 79.0008Z" fill="#F4F4F4"/>
<path d="M658.151 90.7591C651.192 90.7591 645.014 89.2893 639.595 86.3957C634.175 83.502 629.926 79.4831 626.872 74.3389C623.817 69.2176 622.279 63.3385 622.279 56.7244C622.279 50.1104 623.657 44.438 626.435 39.4545C629.214 34.4481 633.049 30.544 637.964 27.7422C642.902 24.9404 648.551 23.5395 654.958 23.5395C661.366 23.5395 666.74 24.9174 671.425 27.6962C676.132 30.4751 679.807 34.2873 682.379 39.133C684.997 43.9787 686.306 49.6052 686.306 55.9666C686.306 56.7933 686.26 57.712 686.168 58.6995C686.099 59.664 685.985 60.5137 685.824 61.2257H636.586C637.252 66.7833 639.572 71.2845 643.568 74.7293C647.541 78.1511 652.524 79.8506 658.495 79.8506C662.927 79.8506 666.946 78.886 670.552 76.934C674.18 74.9589 676.913 72.5016 678.727 69.5621L687.914 75.2116C685.709 79.7817 681.874 83.502 676.431 86.4186C671.011 89.3123 664.902 90.7821 658.151 90.7821V90.7591ZM636.563 51.8099H672.068C671.585 46.2522 669.817 41.9807 666.763 38.9952C663.708 35.9638 659.758 34.4481 654.935 34.4481C650.113 34.4481 645.887 36.0556 642.534 39.2708C639.204 42.5089 637.229 46.6656 636.563 51.8099Z" fill="#F4F4F4"/>
</svg>
