<svg width="20" height="20" viewBox="0 0 20 20" fill="none" xmlns="http://www.w3.org/2000/svg">
<path d="M20 10C20 11.3298 19.734 12.6064 19.2287 13.8298C18.7234 15.0532 18.0053 16.1436 17.0745 17.0745C16.1436 18.0053 15.0532 18.75 13.8298 19.2553C12.6064 19.7606 11.3298 20 10 20C8.67021 20 7.39362 19.7606 6.17021 19.2553C4.94681 18.75 3.85638 18.0319 2.92553 17.0745C1.99468 16.117 1.2766 15.0532 0.771279 13.8298C0.26596 12.6064 0 11.3298 0 10C0 8.67021 0.26596 7.39362 0.771279 6.17021C1.2766 4.94681 1.99468 3.85638 2.92553 2.92553C3.85638 1.99468 4.94681 1.25 6.17021 0.744683C7.39362 0.239364 8.67021 0 10 0C11.3298 0 12.6064 0.239364 13.8298 0.744683C15.0532 1.25 16.1436 1.96809 17.0745 2.92553C18.0053 3.88298 18.75 4.94681 19.2287 6.17021C19.734 7.39362 20 8.67021 20 10Z" fill="#E02F2F"/>
</svg>
