<svg width="105" height="101" viewBox="0 0 105 101" fill="none" xmlns="http://www.w3.org/2000/svg">
<mask id="mask0_220_202" style="mask-type:luminance" maskUnits="userSpaceOnUse" x="0" y="0" width="64" height="59">
<path d="M63.4762 0H0V58.355H63.4762V0Z" fill="white"/>
</mask>
<g mask="url(#mask0_220_202)">
<path d="M47.745 15.4557V6.13177C26.9613 8.29052 10.3344 24.8945 8.17566 45.7011H17.4996C19.5205 29.9698 32.0596 17.4537 47.7679 15.4327L47.745 15.4557Z" fill="#121212" stroke="#121212" stroke-miterlimit="10"/>
</g>
<mask id="mask1_220_202" style="mask-type:luminance" maskUnits="userSpaceOnUse" x="52" y="2" width="49" height="48">
<path d="M100.473 2.87067H52.384V49.031H100.473V2.87067Z" fill="white"/>
</mask>
<g mask="url(#mask1_220_202)">
<path d="M87.2454 45.7011H96.5693C94.4106 24.8945 77.7837 8.29053 56.9771 6.10883V15.4328C72.7083 17.4537 85.2244 29.9698 87.2454 45.7011Z" fill="#121212" stroke="#121212" stroke-miterlimit="10"/>
</g>
<mask id="mask2_220_202" style="mask-type:luminance" maskUnits="userSpaceOnUse" x="0" y="46" width="59" height="55">
<path d="M58.355 46.9872H0V100.657H58.355V46.9872Z" fill="white"/>
</mask>
<g mask="url(#mask2_220_202)">
<path d="M17.4996 54.9332H8.17566C10.3344 75.7398 26.9613 92.3437 47.7679 94.5254V85.2015C32.0826 83.1806 19.5205 70.6415 17.4996 54.9332Z" fill="#121212" stroke="#121212" stroke-miterlimit="10"/>
</g>
<mask id="mask3_220_202" style="mask-type:luminance" maskUnits="userSpaceOnUse" x="51" y="46" width="54" height="51">
<path d="M104.676 46.9872H51.0061V96.8679H104.676V46.9872Z" fill="white"/>
</mask>
<g mask="url(#mask3_220_202)">
<path d="M56.9771 85.2015V94.5254C77.7837 92.3667 94.3876 75.7398 96.5693 54.9332H87.2454C85.2244 70.6185 72.7313 83.1806 56.9771 85.2015Z" fill="#121212" stroke="#121212" stroke-miterlimit="10"/>
</g>
<path d="M78.8399 50.3171C78.8399 35.7341 66.9668 23.861 52.3838 23.861C37.8008 23.861 25.9277 35.7341 25.9277 50.3171C25.9277 64.9001 37.7779 76.7732 52.3838 76.7732C66.9898 76.7732 78.8399 64.9001 78.8399 50.3171ZM52.3838 67.5182C42.8991 67.5182 35.1598 59.8018 35.1598 50.3171C35.1598 40.8324 42.8991 33.0931 52.3838 33.0931C61.8685 33.0931 69.6078 40.8095 69.6078 50.3171C69.6078 59.8248 61.8915 67.5182 52.3838 67.5182Z" fill="#121212"/>
<path d="M61.0419 50.3171C61.0419 51.4654 60.8123 52.5677 60.3759 53.6241C59.9396 54.6805 59.3195 55.6221 58.5157 56.4259C57.7119 57.2297 56.7704 57.8727 55.714 58.309C54.6575 58.7454 53.5552 58.9521 52.4069 58.9521C51.2587 58.9521 50.1563 58.7454 49.0999 58.309C48.0435 57.8727 47.1019 57.2526 46.2982 56.4259C45.4944 55.5991 44.8743 54.6805 44.438 53.6241C44.0016 52.5677 43.772 51.4654 43.772 50.3171C43.772 49.1688 44.0016 48.0665 44.438 47.0101C44.8743 45.9537 45.4944 45.0121 46.2982 44.2083C47.1019 43.4045 48.0435 42.7615 49.0999 42.3252C50.1563 41.8888 51.2587 41.6821 52.4069 41.6821C53.5552 41.6821 54.6575 41.8888 55.714 42.3252C56.7704 42.7615 57.7119 43.3816 58.5157 44.2083C59.3195 45.0351 59.9625 45.9537 60.3759 47.0101C60.8123 48.0665 61.0419 49.1688 61.0419 50.3171Z" fill="#121212"/>
</svg>
