<svg width="136" height="130" viewBox="0 0 136 130" fill="none" xmlns="http://www.w3.org/2000/svg">
<mask id="mask0_193_195" style="mask-type:luminance" maskUnits="userSpaceOnUse" x="0" y="0" width="82" height="76">
<path d="M81.8974 0H0V75.2717H81.8974V0Z" fill="white"/>
</mask>
<g mask="url(#mask0_193_195)">
<path d="M61.6004 19.9362V7.9093C34.7852 10.7235 13.3331 32.1408 10.5479 58.9791H22.5776C25.1851 38.6874 41.3631 22.543 61.63 19.9362H61.6004Z" fill="#121212" stroke="#121212" stroke-miterlimit="10"/>
</g>
<mask id="mask1_193_195" style="mask-type:luminance" maskUnits="userSpaceOnUse" x="67" y="3" width="63" height="61">
<path d="M129.631 3.70288H67.5859V63.2448H129.631V3.70288Z" fill="white"/>
</mask>
<g mask="url(#mask1_193_195)">
<path d="M112.565 58.9791H124.594C121.809 32.1408 100.357 10.7235 73.5122 7.9093V19.9362C93.8088 22.543 109.957 38.6874 112.565 58.9791Z" fill="#121212" stroke="#121212" stroke-miterlimit="10"/>
</g>
<mask id="mask2_193_195" style="mask-type:luminance" maskUnits="userSpaceOnUse" x="0" y="60" width="76" height="70">
<path d="M75.2899 60.6083H0V129.837H75.2899V60.6083Z" fill="white"/>
</mask>
<g mask="url(#mask2_193_195)">
<path d="M22.5776 70.8578H10.5479C13.3331 97.6962 34.7852 119.113 61.63 121.928V109.901C41.3927 107.294 25.1851 91.1199 22.5776 70.8578Z" fill="#3DA549" stroke="#3DA549" stroke-miterlimit="10"/>
</g>
<mask id="mask3_193_195" style="mask-type:luminance" maskUnits="userSpaceOnUse" x="65" y="60" width="71" height="65">
<path d="M135.053 60.6083H65.8076V124.949H135.053V60.6083Z" fill="white"/>
</mask>
<g mask="url(#mask3_193_195)">
<path d="M73.5132 109.901V121.928C100.358 119.143 121.78 97.6962 124.595 70.8578H112.566C109.958 91.0903 93.8394 107.294 73.5132 109.901Z" fill="#121212" stroke="#121212" stroke-miterlimit="10"/>
</g>
<path d="M101.72 64.9037C101.72 46.0932 86.401 30.7782 67.5859 30.7782C48.7709 30.7782 33.4521 46.0932 33.4521 64.9037C33.4521 83.7142 48.7412 99.0293 67.5859 99.0293C86.4306 99.0293 101.72 83.7142 101.72 64.9037ZM67.5859 87.1209C55.3487 87.1209 45.3634 77.1676 45.3634 64.9333C45.3634 52.6991 55.3487 42.7162 67.5859 42.7162C79.8231 42.7162 89.8085 52.6695 89.8085 64.9333C89.8085 77.1972 79.8528 87.1209 67.5859 87.1209Z" fill="#121212"/>
<path d="M78.7569 64.9037C78.7569 66.3849 78.4606 67.8068 77.8976 69.1694C77.3346 70.5321 76.5346 71.7466 75.4976 72.7834C74.4605 73.8202 73.2457 74.6496 71.8827 75.2125C70.5197 75.7753 69.0975 76.0419 67.616 76.0419C66.1345 76.0419 64.7122 75.7753 63.3493 75.2125C61.9863 74.6496 60.7715 73.8498 59.7344 72.7834C58.6974 71.717 57.8973 70.5321 57.3344 69.1694C56.7714 67.8068 56.4751 66.3849 56.4751 64.9037C56.4751 63.4226 56.7714 62.0007 57.3344 60.638C57.8973 59.2754 58.6974 58.0608 59.7344 57.024C60.7715 55.9872 61.9863 55.1578 63.3493 54.595C64.7122 54.0321 66.1345 53.7655 67.616 53.7655C69.0975 53.7655 70.5197 54.0321 71.8827 54.595C73.2457 55.1578 74.4605 55.9576 75.4976 57.024C76.5346 58.0905 77.3643 59.2754 77.8976 60.638C78.4606 62.0007 78.7569 63.4226 78.7569 64.9037Z" fill="#3DA549"/>
</svg>
