<svg width="24" height="24" viewBox="0 0 24 24" fill="none" xmlns="http://www.w3.org/2000/svg">
<path d="M12 24C10.34 24 8.78 23.6848 7.32 23.0544C5.86 22.424 4.59 21.5692 3.51 20.49C2.43 19.4108 1.5752 18.1408 0.945601 16.68C0.316001 15.2192 0.000801518 13.6592 1.51899e-06 12C-0.00079848 10.3408 0.314401 8.7808 0.945601 7.32C1.5768 5.8592 2.4316 4.5892 3.51 3.51C4.5884 2.4308 5.8584 1.576 7.32 0.9456C8.7816 0.3152 10.3416 0 12 0C13.6584 0 15.2184 0.3152 16.68 0.9456C18.1416 1.576 19.4116 2.4308 20.49 3.51C21.5684 4.5892 22.4236 5.8592 23.0556 7.32C23.6876 8.7808 24.0024 10.3408 24 12C23.9976 13.6592 23.6824 15.2192 23.0544 16.68C22.4264 18.1408 21.5716 19.4108 20.49 20.49C19.4084 21.5692 18.1384 22.4244 16.68 23.0556C15.2216 23.6868 13.6616 24.0016 12 24ZM12 21.6C14.68 21.6 16.95 20.67 18.81 18.81C20.67 16.95 21.6 14.68 21.6 12C21.6 11.86 21.5952 11.7148 21.5856 11.5644C21.576 11.414 21.5708 11.2892 21.57 11.19C21.47 11.77 21.2 12.25 20.76 12.63C20.32 13.01 19.8 13.2 19.2 13.2H16.8C16.14 13.2 15.5752 12.9652 15.1056 12.4956C14.636 12.026 14.4008 11.4608 14.4 10.8V9.6H9.59999V7.2C9.59999 6.54 9.8352 5.9752 10.3056 5.5056C10.776 5.036 11.3408 4.8008 12 4.8H13.2C13.2 4.34 13.3252 3.9352 13.5756 3.5856C13.826 3.236 14.1308 2.9508 14.49 2.73C14.09 2.63 13.6852 2.55 13.2756 2.49C12.866 2.43 12.4408 2.4 12 2.4C9.31999 2.4 7.05 3.33 5.19 5.19C3.33 7.05 2.4 9.32 2.4 12H8.4C9.72 12 10.85 12.47 11.79 13.41C12.73 14.35 13.2 15.48 13.2 16.8V18H9.59999V21.3C9.99999 21.4 10.3952 21.4752 10.7856 21.5256C11.176 21.576 11.5808 21.6008 12 21.6Z" fill="#E02F2F"/>
</svg>
