<svg width="24" height="24" viewBox="0 0 24 24" fill="none" xmlns="http://www.w3.org/2000/svg">
<path fill-rule="evenodd" clip-rule="evenodd" d="M12.466 14.1711C12.1166 13.9465 11.8154 13.656 11.5795 13.3162C11.3436 12.9764 11.1777 12.594 11.0913 12.1908C11.0048 11.7876 10.9995 11.3714 11.0756 10.9662C11.1517 10.5609 11.3077 10.1745 11.5348 9.82889L14.9946 4.56712C15.218 4.2137 15.5103 3.90785 15.8545 3.66741C16.1987 3.42697 16.5879 3.25676 16.9993 3.16671C17.4107 3.07667 17.8361 3.06859 18.2507 3.14296C18.6653 3.21733 19.0607 3.37265 19.414 3.59986C19.7673 3.82706 20.0712 4.1216 20.3082 4.46628C20.5451 4.81096 20.7103 5.19887 20.794 5.60738C20.8777 6.01589 20.8784 6.43681 20.7959 6.84557C20.7134 7.25433 20.5494 7.64274 20.3136 7.98813L16.8554 13.2515C16.3966 13.9492 15.6764 14.4381 14.8532 14.6105C14.03 14.783 13.1713 14.6249 12.466 14.1711ZM8.59216 14.4881C8.05979 13.4978 7.80534 12.3846 7.85528 11.2641C7.90522 10.1436 8.25772 9.05685 8.87611 8.11681L12.3343 2.85504C13.2519 1.45932 14.6924 0.481365 16.3389 0.136304C17.1541 -0.0345535 17.9954 -0.0448877 18.8147 0.105891C19.634 0.25667 20.4153 0.565609 21.1139 1.01507C21.8125 1.46453 22.4147 2.04571 22.8863 2.72542C23.3578 3.40514 23.6895 4.17008 23.8622 4.97657C24.0349 5.78306 24.0453 6.6153 23.8929 7.42579C23.7405 8.23627 23.4282 9.00912 22.9738 9.70021L19.5156 14.962C18.9139 15.878 18.0809 16.6228 17.099 17.1228C16.1171 17.6228 15.0203 17.8606 13.917 17.8127C12.8137 17.7649 11.7422 17.433 10.8083 16.8499C9.87441 16.2668 9.11052 15.4527 8.59216 14.4881Z" fill="#E02F2F"/>
<path fill-rule="evenodd" clip-rule="evenodd" d="M4.61686 20.3522C4.26749 20.1276 3.96627 19.8371 3.73039 19.4973C3.49451 19.1576 3.3286 18.7751 3.24213 18.3719C3.15566 17.9687 3.15033 17.5526 3.22643 17.1473C3.30254 16.7421 3.45859 16.3556 3.68568 16.01L7.14548 10.7483C7.36888 10.3949 7.6612 10.089 8.00539 9.84857C8.34958 9.60813 8.73873 9.43792 9.15014 9.34787C9.56155 9.25783 9.98696 9.24976 10.4016 9.32412C10.8162 9.39849 11.2116 9.55381 11.5649 9.78102C11.9181 10.0082 12.2221 10.3028 12.459 10.6474C12.696 10.9921 12.8611 11.38 12.9449 11.7885C13.0286 12.1971 13.0293 12.618 12.9468 13.0267C12.8643 13.4355 12.7003 13.8239 12.4644 14.1693L9.00624 19.4326C8.54744 20.1304 7.82724 20.6192 7.00407 20.7917C6.18091 20.9642 5.32221 20.8061 4.61686 20.3522ZM0.743038 20.6692C0.21067 19.679 -0.0437781 18.5657 0.00615921 17.4453C0.0560966 16.3248 0.408595 15.238 1.02699 14.298L4.4852 9.03777C4.93944 8.34668 5.52683 7.75087 6.21384 7.28435C6.90085 6.81783 7.67402 6.48973 8.4892 6.3188C9.30438 6.14787 10.1456 6.13745 10.9649 6.28814C11.7841 6.43882 12.5654 6.74766 13.264 7.19701C13.9626 7.64637 14.5649 8.22745 15.0364 8.90707C15.508 9.58669 15.8397 10.3515 16.0125 11.158C16.1853 11.9644 16.1958 12.7966 16.0435 13.607C15.8912 14.4174 15.579 15.1903 15.1247 15.8814L11.6665 21.1431C11.0648 22.0592 10.2318 22.804 9.24988 23.304C8.26798 23.8039 7.17117 24.0418 6.06789 23.9939C4.96461 23.946 3.89306 23.6141 2.95917 23.031C2.02529 22.448 1.2614 21.6339 0.743038 20.6692Z" fill="#E02F2F"/>
</svg>
