<svg width="24" height="24" viewBox="0 0 24 24" fill="none" xmlns="http://www.w3.org/2000/svg">
<path d="M8.62795 12.1697C8.62815 15.1481 7.91189 18.0777 6.54632 20.684C6.46473 20.8394 6.35495 20.9763 6.22324 21.0869C6.09153 21.1975 5.94048 21.2796 5.7787 21.3286C5.61693 21.3775 5.4476 21.3924 5.28038 21.3723C5.11317 21.3522 4.95135 21.2975 4.80415 21.2114C4.50687 21.0374 4.28723 20.746 4.19354 20.4011C4.14715 20.2303 4.13308 20.0516 4.15212 19.8751C4.17117 19.6986 4.22297 19.5278 4.30456 19.3724C5.46014 17.1677 6.06622 14.6893 6.06594 12.1697C6.06605 10.8687 6.42177 9.59539 7.09041 8.50249C7.75905 7.40958 8.71222 6.54353 9.83555 6.00822C10.9589 5.47291 12.2047 5.29109 13.4235 5.48457C14.6423 5.67805 15.7823 6.23861 16.7068 7.099C16.833 7.2165 16.936 7.35907 17.01 7.51859C17.0839 7.6781 17.1274 7.85144 17.1379 8.02869C17.1484 8.20594 17.1258 8.38364 17.0712 8.55165C17.0166 8.71965 16.9313 8.87467 16.82 9.00785C16.7087 9.14103 16.5736 9.24976 16.4225 9.32784C16.2714 9.40592 16.1072 9.45181 15.9392 9.4629C15.7713 9.47399 15.603 9.45006 15.4438 9.39248C15.2846 9.3349 15.1378 9.24478 15.0116 9.12729C14.4569 8.61134 13.773 8.27525 13.0418 8.15932C12.3107 8.04339 11.5634 8.15255 10.8895 8.4737C10.2157 8.79485 9.64392 9.31436 9.24278 9.96993C8.84164 10.6255 8.62816 11.3893 8.62795 12.1697ZM17.6121 11.2683H17.595C17.2589 11.2682 16.9363 11.4076 16.6966 11.6563C16.457 11.905 16.3196 12.2432 16.314 12.5979C16.2688 15.802 15.6532 18.9686 14.4992 21.9325C14.4311 22.0975 14.3949 22.2751 14.3926 22.455C14.3904 22.6349 14.4222 22.8135 14.4861 22.9803C14.5501 23.1471 14.645 23.2987 14.7652 23.4263C14.8854 23.5539 15.0285 23.6548 15.1861 23.7233C15.3437 23.7918 15.5127 23.8263 15.6832 23.825C15.8536 23.8236 16.0221 23.7864 16.1787 23.7154C16.3354 23.6444 16.477 23.5412 16.5954 23.4117C16.7137 23.2822 16.8064 23.1291 16.868 22.9613C18.145 19.6854 18.8262 16.185 18.876 12.643C18.8788 12.4649 18.8483 12.2881 18.7862 12.1225C18.7241 11.9569 18.6316 11.806 18.514 11.6782C18.3965 11.5505 18.2562 11.4485 18.1013 11.3782C17.9463 11.3078 17.7807 11.2705 17.6121 11.2683ZM10.97 20.4192C10.665 20.2637 10.314 20.2421 9.99396 20.3591C9.67387 20.4761 9.41071 20.7222 9.26204 21.0435C9.1158 21.3601 8.95781 21.6801 8.79448 21.9923C8.71296 22.1476 8.66123 22.3184 8.64225 22.4949C8.62326 22.6714 8.6374 22.8501 8.68384 23.0208C8.73028 23.1915 8.80812 23.3509 8.91291 23.4899C9.01771 23.6288 9.14741 23.7446 9.2946 23.8307C9.4418 23.9167 9.60361 23.9713 9.7708 23.9914C9.93798 24.0114 10.1073 23.9965 10.269 23.9475C10.4307 23.8984 10.5817 23.8163 10.7134 23.7057C10.845 23.595 10.9547 23.4581 11.0362 23.3028C11.222 22.9489 11.4003 22.5872 11.57 22.2266C11.6432 22.0664 11.6858 21.8924 11.6952 21.7147C11.7047 21.537 11.6808 21.3591 11.625 21.1912C11.5691 21.0233 11.4824 20.8687 11.3699 20.7362C11.2573 20.6037 11.1221 20.496 10.97 20.4192ZM12.471 10.8175C12.1312 10.8175 11.8054 10.96 11.5652 11.2136C11.3249 11.4672 11.19 11.8111 11.19 12.1697C11.1905 13.7349 11.0204 15.2949 10.6829 16.819C10.6054 17.1681 10.6624 17.5353 10.8414 17.84C11.0203 18.1447 11.3066 18.3619 11.6372 18.4439C11.7334 18.468 11.8319 18.4801 11.9308 18.4799C12.2195 18.4796 12.4995 18.3764 12.7257 18.187C12.9518 17.9976 13.1107 17.7331 13.1766 17.4365C13.5596 15.7101 13.7527 13.9428 13.752 12.1697C13.752 11.8111 13.617 11.4672 13.3768 11.2136C13.1365 10.96 12.8107 10.8175 12.471 10.8175ZM12.471 3.74704e-06C11.3316 -0.000940007 10.1984 0.176396 9.10832 0.526231C8.94711 0.578023 8.79714 0.662826 8.66697 0.775798C8.53681 0.88877 8.42899 1.0277 8.34969 1.18465C8.27039 1.3416 8.22115 1.51351 8.20479 1.69055C8.18843 1.86759 8.20526 2.0463 8.25432 2.21647C8.35341 2.56015 8.57779 2.8482 8.87808 3.01726C9.02677 3.10097 9.18962 3.15294 9.35734 3.17022C9.52506 3.18749 9.69436 3.16972 9.85558 3.11793C11.1958 2.68805 12.6127 2.59531 13.9929 2.84713C15.3731 3.09895 16.6783 3.68834 17.8041 4.56811C18.9298 5.44789 19.8448 6.59362 20.4758 7.91361C21.1068 9.2336 21.4363 10.6912 21.438 12.1697C21.4389 14.4952 21.194 16.8135 20.7078 19.0817C20.6706 19.2549 20.666 19.4341 20.6944 19.6092C20.7228 19.7843 20.7836 19.9517 20.8733 20.102C20.963 20.2523 21.0799 20.3824 21.2173 20.485C21.3546 20.5875 21.5098 20.6605 21.6739 20.6998C21.767 20.7226 21.8623 20.7339 21.9579 20.7336C22.2482 20.7336 22.53 20.6294 22.7569 20.4382C22.9838 20.2469 23.1425 19.98 23.2068 19.6811C23.7346 17.2162 24.0007 14.6968 24 12.1697C23.9966 8.94321 22.7809 5.84987 20.6195 3.56838C18.4581 1.28689 15.5276 0.0035828 12.471 3.74704e-06ZM6.11611 3.57655C5.9971 3.45049 5.85569 3.35047 5.69998 3.28222C5.54427 3.21397 5.37733 3.17884 5.20873 3.17884C5.04014 3.17884 4.8732 3.21397 4.71749 3.28222C4.56178 3.35047 4.42037 3.45049 4.30136 3.57655C3.23206 4.70415 2.38472 6.04396 1.80816 7.51878C1.23159 8.9936 0.937189 10.5743 0.941922 12.1697C0.94526 13.531 0.668063 14.8767 0.129552 16.1136C0.0547125 16.2756 0.0113234 16.4518 0.00193654 16.6318C-0.00745028 16.8118 0.0173547 16.992 0.0748928 17.1617C0.132431 17.3315 0.22154 17.4873 0.336981 17.6202C0.452421 17.753 0.591862 17.8602 0.747102 17.9353C0.902343 18.0105 1.07025 18.0521 1.24095 18.0577C1.41164 18.0633 1.58168 18.0329 1.74107 17.9681C1.90046 17.9034 2.04597 17.8057 2.16905 17.6807C2.29213 17.5557 2.3903 17.406 2.45778 17.2404C3.15073 15.6503 3.5077 13.92 3.50393 12.1697C3.5006 10.929 3.73 9.69991 4.17888 8.55325C4.62776 7.40659 5.28725 6.36508 6.11931 5.48877C6.35911 5.23474 6.49348 4.89057 6.49288 4.53196C6.49228 4.17335 6.35675 3.82968 6.11611 3.57655Z" fill="#E02F2F"/>
</svg>
